<svg width="382" height="357" viewBox="0 0 382 357" fill="none" xmlns="http://www.w3.org/2000/svg">
<rect x="109.878" y="0.331177" width="162.243" height="154.508" rx="12.3785" fill="#3734CA"/>
<path d="M164.817 82.9053C173.472 93.4655 158.577 106.527 148.611 97.0946C141.82 90.8319 146.121 78.6651 155.341 78.2463C157.47 77.7844 165.081 80.1569 162.668 82.9081C162.112 83.3098 161.417 83.2208 160.904 82.9971C154.38 79.5918 147.36 87.8167 152.613 92.9835C158.009 98.136 165.962 91.2364 162.487 84.5807C161.721 83.1721 163.549 81.4163 164.817 82.9053ZM231.325 84.5979C234.791 91.3885 227.014 98.1446 221.485 92.9262C216.175 87.6389 223.092 79.543 229.73 83.0057C231.119 83.7344 232.909 82.0389 231.406 80.6762C220.759 72.0036 207.741 87.2258 217.466 97.02C227.481 106.565 242.376 93.5458 233.652 82.9196C232.381 81.4336 230.554 83.1893 231.325 84.5979ZM183.688 90.5622C178.516 127.499 127.137 126.196 122.496 89.429C120.123 71.668 135.79 54.7274 153.594 55.327C154.254 55.3385 154.853 55.6139 155.287 56.0471C163.971 64.7627 172.494 73.5614 180.753 82.2856C182.71 84.443 183.103 85.5303 182.67 85.8401C183.358 85.8487 183.932 87.7049 183.688 90.5622ZM182.575 85.886C181.884 86.1528 179.907 85.1659 178.154 83.4905C169.436 75.7417 160.97 68.059 152.647 60.3073C129.98 61.5696 119.653 89.7044 136.341 105.434C151.092 120.384 177.698 110.55 180.851 90.1434C181.373 87.4266 181.998 86.0237 182.575 85.886ZM249.778 109.244C231.937 126.845 200.83 115.223 198.311 90.5708C198.087 87.5241 198.546 86.0295 199.191 86.0065C198.775 85.6307 199.366 84.2249 201.22 82.2397C209.456 73.4352 217.954 64.5561 226.612 55.7631C227.068 55.3012 227.665 55.0602 228.267 55.043C256.881 54.4405 270.439 89.8909 249.778 109.244ZM253.946 88.5053C255.673 74.0635 243.75 60.4938 229.271 60.0176C220.969 67.8524 212.523 75.6155 203.822 83.4475C201.587 85.4872 199.734 86.4254 199.214 86.0151C199.843 86.0266 200.634 87.4008 201.148 90.1348C207.416 120.674 250.22 119.624 253.946 88.5053ZM229.326 41.3385C231.655 38.8397 230.235 36.82 227.298 39.3102C214.62 50.2032 202.508 61.6614 190.55 73.2745C178.2 62.1147 167.439 49.7414 155.232 38.6991C154.219 37.7553 153.078 37.2561 152.461 37.5516C151.709 37.9102 152.016 39.3073 153.146 40.6672C164.226 53.6258 174.961 67.0061 187.699 78.4098C189.096 79.5889 191.316 80.8081 192.823 79.0553C205.299 66.7881 217.621 54.3745 229.326 41.3385Z" fill="white"/>
<path d="M76.0466 253.337V318.83H65.304V273.974L45.3264 318.83H37.882L17.8102 273.974V318.83H7.06753V253.337H18.6583L41.6513 304.695L64.5501 253.337H76.0466ZM138.697 253.337L117.023 295.083V318.83H106.28V295.083L84.5122 253.337H96.4799L111.651 285.471L126.823 253.337H138.697ZM168.801 319.489C164.404 319.489 160.446 318.735 156.928 317.228C153.41 315.657 150.646 313.458 148.635 310.631C146.625 307.804 145.62 304.506 145.62 300.737H157.116C157.368 303.564 158.467 305.888 160.414 307.71C162.425 309.532 165.22 310.443 168.801 310.443C172.508 310.443 175.398 309.563 177.471 307.804C179.544 305.983 180.58 303.658 180.58 300.831C180.58 298.632 179.921 296.842 178.602 295.46C177.345 294.078 175.743 293.01 173.796 292.256C171.911 291.502 169.272 290.685 165.88 289.806C161.608 288.675 158.121 287.544 155.42 286.413C152.782 285.22 150.52 283.398 148.635 280.948C146.751 278.498 145.808 275.231 145.808 271.147C145.808 267.378 146.751 264.08 148.635 261.253C150.52 258.426 153.158 256.259 156.551 254.751C159.943 253.243 163.87 252.489 168.33 252.489C174.675 252.489 179.858 254.091 183.879 257.295C187.962 260.436 190.224 264.771 190.664 270.299H178.79C178.602 267.912 177.471 265.87 175.398 264.174C173.325 262.478 170.592 261.63 167.199 261.63C164.121 261.63 161.608 262.415 159.661 263.986C157.713 265.556 156.739 267.818 156.739 270.771C156.739 272.781 157.336 274.446 158.53 275.765C159.786 277.021 161.357 278.027 163.241 278.78C165.126 279.534 167.702 280.351 170.969 281.23C175.303 282.424 178.821 283.618 181.523 284.811C184.287 286.005 186.611 287.858 188.496 290.371C190.444 292.821 191.417 296.119 191.417 300.266C191.417 303.595 190.506 306.736 188.685 309.689C186.926 312.642 184.318 315.029 180.863 316.851C177.471 318.61 173.45 319.489 168.801 319.489ZM216.626 275.671V304.412C216.626 306.359 217.066 307.773 217.946 308.652C218.888 309.469 220.459 309.878 222.657 309.878H229.254V318.83H220.773C215.935 318.83 212.229 317.699 209.653 315.437C207.077 313.176 205.789 309.501 205.789 304.412V275.671H199.664V266.907H205.789V253.997H216.626V266.907H229.254V275.671H216.626ZM286.743 291.596C286.743 293.544 286.617 295.303 286.366 296.873H246.694C247.008 301.02 248.547 304.349 251.311 306.862C254.075 309.375 257.468 310.631 261.488 310.631C267.268 310.631 271.351 308.213 273.739 303.375H285.329C283.759 308.15 280.9 312.076 276.754 315.155C272.671 318.17 267.582 319.678 261.488 319.678C256.525 319.678 252.065 318.578 248.107 316.38C244.212 314.118 241.134 310.977 238.872 306.956C236.673 302.873 235.574 298.161 235.574 292.821C235.574 287.481 236.642 282.801 238.778 278.78C240.977 274.697 244.024 271.556 247.919 269.357C251.876 267.158 256.4 266.059 261.488 266.059C266.388 266.059 270.755 267.127 274.587 269.263C278.419 271.399 281.403 274.414 283.539 278.309C285.675 282.141 286.743 286.57 286.743 291.596ZM275.529 288.204C275.466 284.246 274.053 281.073 271.289 278.686C268.524 276.299 265.101 275.105 261.017 275.105C257.311 275.105 254.138 276.299 251.499 278.686C248.861 281.011 247.29 284.183 246.788 288.204H275.529ZM308.057 274.446C309.628 271.807 311.701 269.765 314.277 268.32C316.915 266.813 320.025 266.059 323.606 266.059V277.178H320.873C316.664 277.178 313.46 278.246 311.261 280.382C309.125 282.518 308.057 286.225 308.057 291.502V318.83H297.315V266.907H308.057V274.446ZM380.221 266.907L348.37 343.236H337.25L347.804 317.982L327.355 266.907H339.323L353.929 306.485L369.101 266.907H380.221Z" fill="#3734CA"/>
</svg>
