<svg width="365" height="93" viewBox="0 0 365 93" fill="none" xmlns="http://www.w3.org/2000/svg">
<rect y="0.0811768" width="97.5702" height="92.9188" rx="7.44426" fill="#3734CA"/>
<path d="M33.0393 49.7399C38.2444 56.0907 29.2868 63.9459 23.2931 58.2731C19.2094 54.5068 21.7956 47.1899 27.3407 46.938C28.6208 46.6603 33.198 48.0871 31.747 49.7416C31.4123 49.9832 30.9948 49.9297 30.686 49.7951C26.7627 47.7472 22.5409 52.6936 25.6999 55.8008C28.9452 58.8994 33.7276 54.7501 31.6383 50.7475C31.1777 49.9004 32.2767 48.8445 33.0393 49.7399ZM73.0364 50.7578C75.1206 54.8415 70.4433 58.9046 67.1187 55.7663C63.9252 52.5866 68.0849 47.7179 72.0772 49.8003C72.9122 50.2385 73.9888 49.2189 73.0847 48.3994C66.6822 43.1838 58.8529 52.3382 64.7016 58.2283C70.7246 63.9683 79.6822 56.139 74.4356 49.7485C73.6713 48.8548 72.5723 49.9107 73.0364 50.7578ZM44.3881 54.3447C41.2775 76.5577 10.3794 75.7744 7.58792 53.6632C6.16111 42.982 15.5829 32.7942 26.29 33.1548C26.6868 33.1617 27.0474 33.3273 27.3079 33.5878C32.5303 38.8292 37.6561 44.1207 42.6232 49.3672C43.7998 50.6646 44.0362 51.3185 43.7757 51.5049C44.1897 51.51 44.5348 52.6263 44.3881 54.3447ZM43.7187 51.5325C43.3029 51.6929 42.1142 51.0994 41.0601 50.0919C35.817 45.4319 30.7257 40.8116 25.7206 36.1499C12.0892 36.909 5.87817 53.8288 15.9141 63.2885C24.7855 72.279 40.7858 66.3647 42.6818 54.0928C42.9958 52.4589 43.372 51.6153 43.7187 51.5325ZM84.1334 65.5797C73.4039 76.1643 54.6967 69.1752 53.1819 54.3498C53.0473 52.5176 53.3234 51.6187 53.7116 51.6049C53.4614 51.3789 53.8168 50.5335 54.9313 49.3396C59.8846 44.0447 64.9949 38.705 70.2018 33.417C70.4761 33.1393 70.835 32.9943 71.1973 32.984C88.4052 32.6217 96.5589 53.941 84.1334 65.5797ZM86.6403 53.1076C87.6789 44.4226 80.5086 36.262 71.8011 35.9756C66.8082 40.6874 61.7289 45.356 56.4962 50.066C55.1522 51.2927 54.0376 51.8568 53.7254 51.6101C54.1032 51.617 54.5794 52.4434 54.8882 54.0876C58.6579 72.4532 84.3991 71.8218 86.6403 53.1076ZM71.8339 24.7423C73.2348 23.2396 72.3808 22.025 70.6141 23.5225C62.9901 30.0734 55.706 36.9642 48.515 43.9481C41.0877 37.2368 34.6162 29.7957 27.2751 23.1551C26.6661 22.5874 25.9794 22.2872 25.6085 22.4649C25.1565 22.6806 25.3411 23.5208 26.0208 24.3386C32.6838 32.1317 39.1398 40.1784 46.8001 47.0364C47.6403 47.7455 48.9757 48.4787 49.8814 47.4246C57.3847 40.0473 64.7948 32.582 71.8339 24.7423Z" fill="white"/>
<path d="M179.982 26.6544V66.0405H173.521V39.0653L161.507 66.0405H157.03L144.959 39.0653V66.0405H138.499V26.6544H145.469L159.297 57.5399L173.068 26.6544H179.982ZM217.658 26.6544L204.624 51.7595V66.0405H198.164V51.7595L185.073 26.6544H192.27L201.394 45.9791L210.518 26.6544H217.658ZM235.763 66.4372C233.118 66.4372 230.738 65.9839 228.622 65.0771C226.507 64.1326 224.844 62.8103 223.635 61.1102C222.426 59.4101 221.822 57.4266 221.822 55.1598H228.736C228.887 56.8599 229.548 58.2578 230.719 59.3534C231.928 60.449 233.609 60.9968 235.763 60.9968C237.992 60.9968 239.73 60.4679 240.977 59.4101C242.223 58.3144 242.847 56.9166 242.847 55.2164C242.847 53.8941 242.45 52.8174 241.657 51.9862C240.901 51.155 239.938 50.5128 238.766 50.0594C237.633 49.606 236.046 49.1149 234.006 48.586C231.437 47.9059 229.34 47.2259 227.716 46.5458C226.129 45.828 224.769 44.7324 223.635 43.2589C222.502 41.7855 221.935 39.8209 221.935 37.3652C221.935 35.0984 222.502 33.1149 223.635 31.4148C224.769 29.7147 226.356 28.4112 228.396 27.5045C230.436 26.5978 232.797 26.1444 235.48 26.1444C239.295 26.1444 242.412 27.1078 244.83 29.0346C247.286 30.9236 248.646 33.5305 248.91 36.8552H241.77C241.657 35.4195 240.977 34.1916 239.73 33.1716C238.483 32.1515 236.84 31.6415 234.799 31.6415C232.948 31.6415 231.437 32.1137 230.266 33.0582C229.095 34.0027 228.509 35.3628 228.509 37.1385C228.509 38.3475 228.868 39.3487 229.586 40.1421C230.341 40.8977 231.286 41.5022 232.419 41.9555C233.553 42.4089 235.102 42.9 237.066 43.429C239.673 44.1468 241.789 44.8646 243.413 45.5824C245.076 46.3003 246.474 47.4148 247.607 48.926C248.778 50.3994 249.364 52.3829 249.364 54.8764C249.364 56.8788 248.816 58.7678 247.72 60.5435C246.663 62.3192 245.095 63.7548 243.017 64.8504C240.977 65.9083 238.559 66.4372 235.763 66.4372ZM264.524 40.0854V57.3699C264.524 58.5411 264.789 59.3912 265.317 59.9201C265.884 60.4112 266.829 60.6568 268.151 60.6568H272.118V66.0405H267.018C264.109 66.0405 261.879 65.3605 260.33 64.0004C258.781 62.6403 258.007 60.4301 258.007 57.3699V40.0854H254.323V34.815H258.007V27.0511H264.524V34.815H272.118V40.0854H264.524ZM306.691 49.6627C306.691 50.8339 306.615 51.8918 306.464 52.8363H282.606C282.795 55.3298 283.721 57.3321 285.383 58.8434C287.045 60.3546 289.085 61.1102 291.503 61.1102C294.979 61.1102 297.435 59.6556 298.87 56.7465H305.841C304.896 59.6179 303.177 61.9791 300.684 63.8304C298.228 65.6438 295.168 66.5506 291.503 66.5506C288.519 66.5506 285.836 65.8894 283.456 64.5671C281.114 63.207 279.262 61.318 277.902 58.9C276.58 56.4443 275.919 53.6108 275.919 50.3994C275.919 47.1881 276.561 44.3735 277.846 41.9555C279.168 39.4998 281 37.6108 283.343 36.2885C285.723 34.9661 288.443 34.305 291.503 34.305C294.45 34.305 297.076 34.9472 299.381 36.2318C301.685 37.5163 303.48 39.3298 304.764 41.6722C306.049 43.9768 306.691 46.6403 306.691 49.6627ZM299.947 47.6226C299.909 45.2424 299.059 43.3345 297.397 41.8988C295.735 40.4632 293.676 39.7454 291.22 39.7454C288.991 39.7454 287.083 40.4632 285.496 41.8988C283.909 43.2967 282.965 45.2046 282.663 47.6226H299.947ZM319.509 39.3487C320.454 37.7619 321.7 36.534 323.249 35.6651C324.836 34.7583 326.706 34.305 328.86 34.305V40.9921H327.216C324.685 40.9921 322.758 41.6344 321.436 42.9189C320.151 44.2034 319.509 46.4325 319.509 49.606V66.0405H313.049V34.815H319.509V39.3487ZM362.907 34.815L343.752 80.7182H337.065L343.412 65.5305L331.115 34.815H338.312L347.096 58.6167L356.22 34.815H362.907Z" fill="#3734CA"/>
</svg>
