<svg width="500" height="500" viewBox="0 0 500 500" fill="none" xmlns="http://www.w3.org/2000/svg">
<path d="M60.73 67.5L73.85 67.22L80.51 67.11C82.74 67.11 84.97 67.11 87.21 67.11H87.65V67.56L87.71 78.75V79.25H87.21L74 79.13C69.58 79.13 65.17 79.02 60.76 78.96H60.48V78.69C60.48 76.79 60.57 74.91 60.61 73.04L60.73 67.5ZM60.73 67.5L60.87 73.16C60.87 75.02 60.98 76.86 61 78.69L60.73 78.42C65.14 78.42 69.55 78.26 73.97 78.26L87.21 78.19L86.71 78.69L86.76 67.5L87.21 67.95C85.02 67.95 82.85 67.95 80.66 67.89L74.08 67.78L60.73 67.5Z" fill="#EBEBEB"/>
<path d="M75.5002 53.39L88.6202 53.11L95.2802 53C97.5102 53 99.7502 53 101.98 53H102.42V53.45L102.48 64.64V65.14H102L88.7402 65C84.3202 65 79.9102 64.89 75.5002 64.83H75.2202V64.56C75.2202 62.66 75.3102 60.78 75.3502 58.91L75.5002 53.39ZM75.5002 53.39L75.6402 59.05C75.6402 60.91 75.7502 62.75 75.7702 64.58L75.5002 64.31C79.9102 64.31 84.3202 64.15 88.7402 64.15L102 64.08L101.5 64.58V53.39L101.95 53.84C99.7702 53.84 97.5902 53.84 95.4002 53.78L88.8202 53.67L75.5002 53.39Z" fill="#EBEBEB"/>
<path d="M101.18 197.16L114.3 196.88L120.96 196.77C123.19 196.72 125.43 196.77 127.66 196.71H128.1V197.16L128.16 208.35V208.85H127.66L114.42 208.78C110 208.78 105.59 208.67 101.18 208.62H100.9V208.35C100.9 206.45 100.99 204.56 101.03 202.69L101.18 197.16ZM101.18 197.16L101.32 202.81C101.32 204.67 101.43 206.52 101.45 208.35L101.18 208.07C105.59 208.07 110 207.91 114.42 207.91L127.66 207.85L127.16 208.35V197.16L127.61 197.6C125.42 197.6 123.25 197.6 121.06 197.6L114.48 197.49L101.18 197.16Z" fill="#EBEBEB"/>
<path d="M116 183.05L129.12 182.77L135.78 182.66C138.01 182.66 140.25 182.66 142.48 182.6H142.92V183.05L142.98 194.24V194.74H142.48L129.24 194.67C124.82 194.67 120.41 194.56 116 194.51H115.72V194.24C115.72 192.34 115.81 190.45 115.86 188.58L116 183.05ZM116 183.05L116.14 188.7C116.14 190.56 116.25 192.41 116.27 194.24L116 194C120.41 193.95 124.82 193.85 129.24 193.84L142.48 193.78L141.98 194.28V183.09L142.43 183.53C140.25 183.53 138.07 183.53 135.88 183.48L129.3 183.37L116 183.05Z" fill="#EBEBEB"/>
<path d="M46.0002 53.39L59.1302 53.11L65.7402 53C67.9602 53 70.2002 53 72.4302 53H72.8802V53.45L72.9302 64.64V65.14H72.4202L59.1902 65C54.7802 65 50.3702 64.89 45.9502 64.83H45.6802V64.56C45.6802 62.66 45.7702 60.78 45.8102 58.91L46.0002 53.39ZM46.0002 53.39L46.1502 59.05C46.1502 60.91 46.2602 62.75 46.2802 64.58L46.0002 64.31C50.4202 64.31 54.8302 64.15 59.2402 64.15L72.4802 64.08L71.9802 64.58L72.0002 53.39L72.4402 53.84C70.2602 53.84 68.0902 53.84 65.9002 53.78L59.3202 53.67L46.0002 53.39Z" fill="#EBEBEB"/>
<path d="M439.27 296.41L426.15 296.69L419.49 296.81C417.26 296.81 415.03 296.81 412.79 296.86H412.35V296.41L412.29 285.23V284.72H412.79L426.03 284.78C430.45 284.78 434.86 284.89 439.27 284.94H439.55V285.21C439.55 287.1 439.46 288.99 439.42 290.86L439.27 296.41ZM439.27 296.41L439.13 290.76C439.13 288.9 439.02 287.06 439 285.23L439.27 285.5C434.86 285.55 430.45 285.66 426.03 285.66L412.79 285.72L413.29 285.23L413.24 296.41L412.79 295.97C414.98 295.97 417.15 295.97 419.34 295.97L425.92 296.09L439.27 296.41Z" fill="#EBEBEB"/>
<path d="M454.05 310.52L440.92 310.8L434.26 310.92C432.03 310.92 429.8 310.92 427.57 310.97H427.12V310.52L427.07 299.33V298.83H427.58L440.82 298.89C445.23 298.89 449.64 299 454.06 299.05H454.33V299.31C454.33 301.21 454.24 303.1 454.2 304.97L454.05 310.52ZM454.05 310.52L453.9 304.87C453.9 303.01 453.79 301.17 453.77 299.33L454.05 299.61C449.63 299.66 445.22 299.77 440.81 299.77L427.57 299.83L428.07 299.33L428 310.52L427.56 310.08C429.74 310.08 431.91 310.08 434.1 310.13L440.68 310.25L454.05 310.52Z" fill="#EBEBEB"/>
<path d="M87.4302 310.52L74.3102 310.8L67.6502 310.92C65.4202 310.92 63.1802 310.92 60.9502 310.97H60.5102V310.52L60.4502 299.33V298.83H61.0002L74.2402 298.89C78.6602 298.89 83.0702 299 87.4802 299.05H87.7602V299.31C87.7602 301.21 87.6702 303.1 87.6202 304.97L87.4302 310.52ZM87.4302 310.52L87.2902 304.87C87.2902 303.01 87.1802 301.17 87.1602 299.33L87.4302 299.61C83.0202 299.66 78.6102 299.77 74.1902 299.77L61.0002 299.83L61.5002 299.33L61.4502 310.52L61.0002 310.08C63.1802 310.08 65.3602 310.08 67.5502 310.13L74.1302 310.25L87.4302 310.52Z" fill="#EBEBEB"/>
<path d="M412.68 53.39L425.81 53.11L432.47 53C434.69 53 436.93 53 439.16 53H439.61V53.45L439.66 64.64V65.14H439.16L425.92 65C421.51 65 417.09 64.89 412.68 64.83H412.41V64.56C412.41 62.66 412.49 60.78 412.54 58.91L412.68 53.39ZM412.68 53.39L412.82 59.05C412.87 60.91 412.94 62.75 412.95 64.58L412.68 64.31C417.09 64.31 421.51 64.15 425.92 64.15L439.16 64.08L438.66 64.58L438.72 53.39L439.16 53.84C436.98 53.84 434.8 53.84 432.62 53.78L426 53.67L412.68 53.39Z" fill="#EBEBEB"/>
<path d="M450.67 225.78H317.53V39.85H450.67V225.78ZM321.48 221.83H446.72V43.8H321.48V221.83Z" fill="#EBEBEB"/>
<path d="M386.07 44.83H382.12V223.8H386.07V44.83Z" fill="#EBEBEB"/>
<path d="M454.26 47.84H313.95V53.34H454.26V47.84Z" fill="#EBEBEB"/>
<path d="M454.26 54.0299H313.95V59.5299H454.26V54.0299Z" fill="#EBEBEB"/>
<path d="M454.26 60.21H313.95V65.71H454.26V60.21Z" fill="#EBEBEB"/>
<path d="M454.26 66.3999H313.95V71.8999H454.26V66.3999Z" fill="#EBEBEB"/>
<path d="M454.26 72.59H313.95V78.09H454.26V72.59Z" fill="#EBEBEB"/>
<path d="M454.26 78.7799H313.95V84.2799H454.26V78.7799Z" fill="#EBEBEB"/>
<path d="M454.26 84.97H313.95V90.47H454.26V84.97Z" fill="#EBEBEB"/>
<path d="M454.26 91.1599H313.95V96.6599H454.26V91.1599Z" fill="#EBEBEB"/>
<path d="M454.26 97.35H313.95V102.85H454.26V97.35Z" fill="#EBEBEB"/>
<path d="M442.52 46.72H441.53V153.77H442.52V46.72Z" fill="#A6A6A6"/>
<path d="M443.78 158.37H440.27L441.15 153.33H442.9L443.78 158.37Z" fill="#A6A6A6"/>
<path d="M446.08 46.72H445.09V180.77H446.08V46.72Z" fill="#A6A6A6"/>
<path d="M447.34 184.48H443.83L444.71 179.44H446.46L447.34 184.48Z" fill="#A6A6A6"/>
<path d="M460.39 39.08H307.82V50.59H460.39V39.08Z" fill="#DBDBDB"/>
<path d="M154.04 105.08H42.2202V111.72H154.04V105.08Z" fill="#EBEBEB"/>
<path d="M57.3504 111.72H50.7104V133.68H57.3504V111.72Z" fill="#EBEBEB"/>
<path d="M57.3504 111.72H50.7104V118.51H57.3504V111.72Z" fill="#DBDBDB"/>
<path d="M145.55 111.72H138.91V133.68H145.55V111.72Z" fill="#EBEBEB"/>
<path d="M145.55 111.72H138.91V118.51H145.55V111.72Z" fill="#DBDBDB"/>
<path d="M67.4302 105.08V62.76H56.7702V105.08H67.4302Z" fill="#C7C7C7"/>
<path d="M67.4302 65.16V60.51H56.7702V65.16H67.4302Z" fill="#DBDBDB"/>
<path d="M67.4302 72.84V71.11H56.7702V72.84H67.4302Z" fill="#DBDBDB"/>
<path d="M68.7603 99.53V94.88H56.7803V99.53H68.7603Z" fill="#DBDBDB"/>
<path d="M74.8701 105.08V55.72H67.4201V105.08H74.8701Z" fill="#DBDBDB"/>
<path d="M73.3501 79.35V60.36H68.8801V79.35H73.3501Z" fill="#EBEBEB"/>
<path d="M127.842 99.7968L92.7393 65.0956L87.5017 70.3938L122.605 105.095L127.842 99.7968Z" fill="#C7C7C7"/>
<path d="M118.59 92.6933L105.084 79.3429L101.942 82.5218L115.447 95.8722L118.59 92.6933Z" fill="#DBDBDB"/>
<path d="M87.52 105.09V67.6H74.87V105.09H87.52Z" fill="#A6A6A6"/>
<path d="M87.52 101.11V97.62H74.87V101.11H87.52Z" fill="#C7C7C7"/>
<path d="M87.52 95.33V93.97H74.87V95.33H87.52Z" fill="#C7C7C7"/>
<path d="M56.77 105.1V69.86H48.03V105.1H56.77Z" fill="#A6A6A6"/>
<path d="M56.77 101.35V98.0699H48.03V101.35H56.77Z" fill="#C7C7C7"/>
<path d="M56.77 80.39V77.11H48.03V80.39H56.77Z" fill="#C7C7C7"/>
<path d="M56.77 83.9199V82.6499H48.03V83.9199H56.77Z" fill="#C7C7C7"/>
<path d="M451.32 446.59C451.32 460.78 361.18 472.29 250 472.29C138.82 472.29 48.6802 460.78 48.6802 446.59C48.6802 432.4 138.82 420.89 250 420.89C361.18 420.89 451.32 432.4 451.32 446.59Z" fill="#EBEBEB"/>
<path d="M400.14 326.64C400.14 326.64 383.55 322.88 374.46 314.5C365.37 306.12 360.28 291.11 360.28 291.11C366.586 292.319 372.804 293.953 378.89 296C381.173 298.356 383.073 301.055 384.52 304C384.663 302.106 384.663 300.204 384.52 298.31C386.645 299.226 388.634 300.431 390.43 301.89C398 308.45 400.14 326.64 400.14 326.64Z" fill="#3734CA"/>
<path d="M370.64 298.4C368.38 296.84 366.08 295.33 363.83 293.75C363.69 293.66 363.83 293.44 363.96 293.53C368.24 296.08 372.45 298.81 376.53 301.67C377.95 302.67 379.35 303.7 380.73 304.76L380.44 304.27C379.94 303.44 379.44 302.62 378.89 301.8C377.851 300.137 376.673 298.565 375.37 297.1C375.32 297.05 375.37 296.97 375.45 297.02C376.74 298.51 378.03 300.02 379.21 301.57C379.77 302.32 380.29 303.1 380.79 303.89C381.05 304.31 381.3 304.72 381.53 305.15L381.78 305.57C383.93 307.26 386.02 309.02 388.01 310.87C389.243 312.017 390.433 313.203 391.58 314.43C390.93 312.43 390.37 310.43 389.63 308.43C389.63 308.36 389.72 308.33 389.74 308.43C390.46 310.5 391.25 312.59 391.81 314.72C393.08 316.09 394.3 317.51 395.44 319L395.38 318.73C395.19 317.94 395 317.16 394.79 316.39C394.39 314.89 393.94 313.39 393.44 311.92C392.483 308.866 390.971 306.015 388.98 303.51C388.93 303.45 388.98 303.37 389.06 303.43C392.168 307.308 394.344 311.848 395.42 316.7C395.6 317.4 395.76 318.11 395.92 318.82C396.01 319.2 396.11 319.58 396.17 319.97C396.67 320.65 397.17 321.33 397.64 322.03C400.456 326.358 402.803 330.974 404.64 335.8C406.725 341.212 408.514 346.734 410 352.34C409.994 352.358 409.982 352.373 409.967 352.384C409.952 352.395 409.933 352.4 409.915 352.4C409.896 352.4 409.878 352.395 409.863 352.384C409.847 352.373 409.836 352.358 409.83 352.34C406.58 342.63 403.27 332.78 397.71 324.11C396.538 322.277 395.273 320.504 393.92 318.8C391.171 318.624 388.458 318.086 385.85 317.2C383.005 316.236 380.291 314.923 377.77 313.29C376.333 312.319 374.948 311.274 373.62 310.16C373.611 310.157 373.603 310.152 373.596 310.145C373.59 310.138 373.585 310.129 373.582 310.12C373.58 310.111 373.579 310.102 373.581 310.092C373.583 310.083 373.587 310.074 373.593 310.067C373.598 310.059 373.606 310.053 373.615 310.049C373.623 310.045 373.633 310.043 373.642 310.044C373.651 310.044 373.661 310.046 373.669 310.051C373.677 310.056 373.684 310.062 373.69 310.07C376.008 311.941 378.568 313.492 381.3 314.68C383.981 315.911 386.787 316.849 389.67 317.48C390.89 317.75 392.14 317.95 393.38 318.12C391.846 316.229 390.213 314.42 388.49 312.7C387.93 312.14 387.35 311.6 386.77 311.06C384.836 309.708 382.785 308.533 380.64 307.55C377.92 306.23 375.24 304.84 372.55 303.47C371.03 302.7 369.55 301.91 368 301.16C367.93 301.16 368 301.04 368.06 301.07C370.78 302.39 373.55 303.62 376.3 304.88C379.05 306.14 381.52 307.26 384 308.65L384.32 308.84C382.07 306.84 379.74 305.02 377.32 303.22C375.14 301.6 372.91 300 370.64 298.4Z" fill="#263238"/>
<path d="M371.59 307C372.94 307.59 374.31 308.11 375.65 308.74C376.99 309.37 378.32 310.13 379.65 310.9C379.656 310.903 379.661 310.908 379.665 310.913C379.669 310.918 379.672 310.924 379.674 310.931C379.676 310.937 379.677 310.944 379.676 310.951C379.675 310.958 379.673 310.964 379.67 310.97C379.666 310.976 379.662 310.981 379.657 310.985C379.651 310.99 379.645 310.993 379.639 310.995C379.632 310.996 379.626 310.997 379.619 310.996C379.612 310.995 379.606 310.993 379.6 310.99C378.28 310.36 376.94 309.77 375.6 309.11C374.26 308.45 372.93 307.71 371.55 307.11C371.49 307 371.52 306.93 371.59 307Z" fill="#263238"/>
<path d="M454 243C450.92 246.95 449.17 251.774 449 256.78C448.95 258.27 449.18 260.35 449.36 262.78C445.217 265.183 441.547 268.321 438.53 272.04C441.841 270.115 445.645 269.204 449.47 269.42C449.384 271.1 449.174 272.771 448.84 274.42C446.438 274.427 444.061 274.899 441.84 275.81C444.017 275.787 446.176 276.216 448.18 277.07C445.18 286.48 436.44 296.15 412.18 300.25C409.61 288.709 411.13 276.634 416.48 266.09C423.77 251.76 454 243 454 243Z" fill="#3734CA"/>
<path d="M403.8 340.49C404.22 336.49 404.743 332.49 405.37 328.49C406.598 320.493 408.23 312.562 410.26 304.73C411.214 301.054 412.386 297.437 413.77 293.9C413.7 293.256 413.67 292.608 413.68 291.96C413.68 291.18 413.68 290.4 413.68 289.62C413.68 288.07 413.77 286.52 413.9 284.97C414.146 281.898 414.644 278.851 415.39 275.86C415.84 274.13 416.39 272.43 416.86 270.72C416.864 270.709 416.872 270.7 416.882 270.694C416.892 270.687 416.903 270.684 416.915 270.684C416.926 270.684 416.938 270.687 416.948 270.694C416.957 270.7 416.965 270.709 416.97 270.72C416.16 273.705 415.558 276.742 415.17 279.81C414.74 282.83 414.469 285.871 414.36 288.92C414.36 289.75 414.31 290.59 414.31 291.42C414.31 291.78 414.31 292.14 414.31 292.49C415.504 289.592 416.87 286.767 418.4 284.03C420.866 279.692 423.644 275.538 426.71 271.6C426.716 271.14 426.783 270.682 426.91 270.24C427.02 269.7 427.14 269.16 427.26 268.61C427.51 267.51 427.79 266.4 428.09 265.31C428.69 263.11 429.49 260.98 430.18 258.81C430.184 258.799 430.192 258.79 430.202 258.784C430.212 258.777 430.223 258.774 430.235 258.774C430.246 258.774 430.258 258.777 430.268 258.784C430.277 258.79 430.285 258.799 430.29 258.81C429.65 260.96 429.22 263.19 428.73 265.38C428.48 266.46 428.25 267.54 428.01 268.63C427.89 269.17 427.77 269.71 427.66 270.25C427.66 270.25 427.66 270.34 427.66 270.38C428.64 269.14 429.64 267.92 430.66 266.72C435.29 261.28 440.37 256.26 445.49 251.29C446.12 250.67 446.76 250.08 447.4 249.47C447.4 249.47 447.53 249.47 447.48 249.56C442.59 254.66 437.78 259.81 433.22 265.21C432.13 266.5 431.07 267.8 430.02 269.11L431.68 268.01C433.09 267.09 434.52 266.19 435.99 265.37C437.46 264.55 438.99 263.73 440.46 262.98C441.93 262.23 443.68 261.58 445.19 260.71C445.25 260.71 445.31 260.78 445.24 260.81C443.705 261.518 442.225 262.337 440.81 263.26C439.33 264.14 437.86 265.02 436.41 265.94C434.96 266.86 433.55 267.74 432.13 268.66C430.95 269.43 429.79 270.27 428.56 270.97C425.746 274.587 423.148 278.367 420.78 282.29C419.317 284.763 417.982 287.31 416.78 289.92L417.65 289.54L419.88 288.54C421.3 287.91 422.74 287.29 424.17 286.67C426.89 285.48 429.66 284.4 432.33 283.1C433.835 282.39 435.291 281.582 436.69 280.68C436.75 280.68 436.8 280.68 436.74 280.78C431.74 284.21 426.18 286.62 420.68 289.06L418.29 290.12C417.63 290.41 416.97 290.73 416.29 290.99C414.657 294.639 413.283 298.398 412.18 302.24C410.011 309.969 408.249 317.807 406.9 325.72C405.51 333.65 404.57 341.63 403.84 349.65C403.75 350.65 403.66 351.65 403.54 352.65C403.526 352.724 403.488 352.791 403.43 352.839C403.372 352.887 403.3 352.914 403.225 352.914C403.15 352.914 403.077 352.887 403.019 352.839C402.962 352.791 402.923 352.724 402.91 352.65C403 348.61 403.37 344.54 403.8 340.49Z" fill="#263238"/>
<path d="M418.57 273.45C419.01 270.98 419.67 268.57 420.33 266.15C420.33 266.08 420.46 266.15 420.44 266.15C419.83 268.52 419.39 270.94 418.94 273.34C418.49 275.74 418.09 278.26 417.74 280.73C417.74 280.73 417.67 280.78 417.67 280.73C417.831 278.288 418.132 275.858 418.57 273.45Z" fill="#263238"/>
<path d="M429 280.14C430.69 279.022 432.454 278.019 434.28 277.14C435.16 276.69 436.06 276.25 436.95 275.82C437.84 275.39 438.84 275 439.76 274.54C439.82 274.54 439.87 274.6 439.76 274.63C438.87 275.08 438.03 275.63 437.16 276.09L434.46 277.57C432.69 278.52 430.94 279.57 429.08 280.35C429.059 280.344 429.04 280.333 429.024 280.319C429.007 280.304 428.995 280.286 428.987 280.265C428.979 280.245 428.977 280.223 428.979 280.201C428.981 280.179 428.988 280.158 429 280.14Z" fill="#263238"/>
<path opacity="0.1" d="M399.84 297.9C399.84 297.9 384.49 294.23 377.44 283.9C370.71 274.07 368.53 257.3 368.36 255.82C368.63 257.18 371.8 271.82 382.25 278.66C390.26 283.92 398 288.22 399.84 297.9Z" fill="#263238"/>
<path d="M399.84 297.9C399.84 297.9 384.49 294.23 377.44 283.9C370.71 274.07 368.53 257.3 368.36 255.82C368.355 255.787 368.355 255.753 368.36 255.72C368.36 255.72 375.72 266.19 383.46 268.86C391.2 271.53 402.06 280.79 399.84 297.9Z" fill="#3734CA"/>
<path d="M371.06 261.52C372.437 264.342 374.025 267.056 375.81 269.64C377.598 272.092 379.722 274.28 382.12 276.14C384.21 277.8 386.41 279.3 388.52 280.92V280.84C388.12 280.26 387.7 279.68 387.26 279.13C386.38 278 385.42 276.94 384.45 275.89C382.55 273.82 380.6 271.79 378.89 269.55C377.936 268.304 377.112 266.963 376.43 265.55C376.43 265.48 376.5 265.45 376.53 265.55C379.02 270.74 384 274.06 387.53 278.44C388.032 279.063 388.503 279.71 388.94 280.38C389.292 280.866 389.591 281.389 389.83 281.94C391.774 283.5 393.533 285.278 395.07 287.24C394.936 286.226 394.729 285.224 394.45 284.24C394.095 282.872 393.546 281.562 392.82 280.35C392.82 280.29 392.88 280.22 392.92 280.29C393.661 281.505 394.261 282.8 394.71 284.15C395.034 285.226 395.222 286.338 395.27 287.46C396.03 288.492 396.725 289.571 397.35 290.69C397.28 290.36 397.22 290.03 397.16 289.69C396.85 288.16 396.52 286.63 396.16 285.12C395.435 282.046 394.187 279.12 392.47 276.47C392.42 276.41 392.47 276.35 392.56 276.41C394.321 279.02 395.698 281.869 396.65 284.87C397.14 286.38 397.53 287.87 397.88 289.46C398.05 290.21 398.2 290.97 398.34 291.73C398.42 292.12 398.5 292.53 398.57 292.93C400.09 296.275 401.275 299.762 402.11 303.34C403.614 309.733 404.707 316.217 405.38 322.75C406.173 329.59 406.527 336.474 406.44 343.36C406.44 344.23 406.37 345.09 406.33 345.95C406.33 346.17 405.98 346.21 405.97 345.95C405.82 342.54 405.73 339.13 405.53 335.73C405.33 332.33 405.03 328.93 404.67 325.53C403.969 318.86 402.901 312.233 401.47 305.68C400.22 300.07 398.61 294.42 395.54 289.5C394.015 287.052 392.15 284.833 390 282.91C387.85 280.98 385.5 279.29 383.23 277.5C380.93 275.749 378.842 273.736 377.01 271.5C375.136 269.02 373.502 266.368 372.13 263.58L371.03 261.5C370.93 261.52 371 261.46 371.06 261.52Z" fill="#263238"/>
<path d="M373.71 263.78C374.72 265.851 375.862 267.856 377.13 269.78C377.13 269.78 377.13 269.87 377.06 269.78C375.741 267.88 374.584 265.873 373.6 263.78C373.57 263.75 373.68 263.71 373.71 263.78Z" fill="#263238"/>
<path d="M456.18 291.11C456.18 291.11 456.43 312.93 443.38 319.22C430.33 325.51 423.38 320.28 414.48 322.39C414.82 321.87 421.15 312.77 431.21 310.27C441.57 307.68 453 300.2 456.18 291.11Z" fill="#3734CA"/>
<path opacity="0.1" d="M456.18 291.11C456.18 291.11 456.43 312.93 443.38 319.22C430.33 325.51 423.38 320.28 414.48 322.39C419.165 320.155 424.173 318.673 429.32 318C437.55 317 453.26 311.65 456.18 291.11Z" fill="black"/>
<path d="M413.62 322.78C415.169 321.36 416.918 320.175 418.81 319.26C419.08 319.13 419.37 319.02 419.66 318.9C419.792 318.724 419.936 318.557 420.09 318.4C420.49 317.99 420.89 317.6 421.32 317.23C422.14 316.526 423.02 315.893 423.95 315.34C426.11 314.07 428.48 313.18 430.69 312C430.75 312 430.81 312.06 430.74 312.1C429.65 312.66 428.59 313.29 427.53 313.91C426.47 314.53 425.44 315.09 424.43 315.74C423.526 316.323 422.664 316.967 421.85 317.67C421.62 317.87 421.4 318.09 421.18 318.31C422.623 317.826 424.096 317.435 425.59 317.14C427.98 316.66 430.39 316.32 432.78 315.81C433.948 315.56 435.103 315.25 436.24 314.88C437.32 314 438.4 313.14 439.43 312.19C440.669 311.053 441.797 309.8 442.8 308.45C442.8 308.4 442.94 308.45 442.89 308.51C441.309 310.651 439.52 312.631 437.55 314.42C438.11 314.2 438.66 313.97 439.21 313.72C443.693 311.713 447.54 308.513 450.33 304.47C450.33 304.41 450.47 304.47 450.43 304.53C448.057 307.999 444.993 310.941 441.43 313.17C439.647 314.284 437.741 315.187 435.75 315.86C433.437 316.577 431.078 317.135 428.69 317.53C426.35 317.91 424.041 318.458 421.78 319.17C419.698 319.876 417.741 320.905 415.98 322.22C412.658 324.801 409.981 328.118 408.16 331.91C405.821 336.959 404.364 342.37 403.85 347.91C403.85 348.14 403.47 348.14 403.48 347.91C404.09 338.69 406.55 329.14 413.62 322.78Z" fill="#263238"/>
<path d="M428.76 315.66C429.44 314.642 430.361 313.808 431.44 313.23C432.677 312.584 433.764 311.685 434.63 310.59C434.63 310.53 434.77 310.59 434.72 310.65C433.937 311.647 432.986 312.5 431.91 313.17C430.726 313.801 429.681 314.665 428.84 315.71C428.8 315.76 428.72 315.71 428.76 315.66Z" fill="#263238"/>
<path d="M421.83 338.88L421.24 350.88L419.42 387.53H392.05L390.23 350.88L389.64 338.88H421.83Z" fill="#37474F"/>
<path d="M421.83 338.88L421.24 350.88H390.23L389.64 338.88H421.83Z" fill="#263238"/>
<path d="M423.75 333.87H387.72V345.32H423.75V333.87Z" fill="#37474F"/>
<path d="M42.2202 387.53L94.1602 387.29L146.11 387.2L250 387.03L353.89 387.2L405.84 387.29L457.78 387.53L405.84 387.78L353.89 387.87L250 388.03L146.11 387.86L94.1602 387.78L42.2202 387.53Z" fill="#263238"/>
<path d="M375.22 414.26V65.73C375.22 58.611 369.449 52.84 362.33 52.84L137.68 52.84C130.561 52.84 124.79 58.611 124.79 65.73L124.79 414.26C124.79 421.379 130.561 427.15 137.68 427.15H362.33C369.449 427.15 375.22 421.379 375.22 414.26Z" fill="#263238"/>
<path d="M364.65 79.0399H135.64V401.18H364.65V79.0399Z" fill="white"/>
<path d="M277.24 68.74V67.35C277.24 66.6596 276.681 66.1 275.99 66.1H223.99C223.3 66.1 222.74 66.6596 222.74 67.35V68.74C222.74 69.4303 223.3 69.99 223.99 69.99H275.99C276.681 69.99 277.24 69.4303 277.24 68.74Z" fill="#37474F"/>
<path d="M250 420.89C253.894 420.89 257.05 417.734 257.05 413.84C257.05 409.946 253.894 406.79 250 406.79C246.107 406.79 242.95 409.946 242.95 413.84C242.95 417.734 246.107 420.89 250 420.89Z" fill="#37474F"/>
<path d="M329.37 123.28H170.93V125.51H329.37V123.28Z" fill="#EBEBEB"/>
<path d="M329.37 130.2H170.93V132.43H329.37V130.2Z" fill="#EBEBEB"/>
<path d="M329.37 340.93H170.93V343.16H329.37V340.93Z" fill="#EBEBEB"/>
<path d="M329.37 347.85H170.93V350.08H329.37V347.85Z" fill="#EBEBEB"/>
<path d="M209.45 371.86C213.493 371.86 216.77 368.583 216.77 364.54C216.77 360.497 213.493 357.22 209.45 357.22C205.407 357.22 202.13 360.497 202.13 364.54C202.13 368.583 205.407 371.86 209.45 371.86Z" fill="#3734CA"/>
<path d="M209.57 368.81L205.21 364.4L206.68 362.95L209.22 365.53L214.52 357.23L216.25 358.34L209.57 368.81Z" fill="white"/>
<path d="M227.78 364.48C227.785 363.954 227.88 363.434 228.06 362.94C228.245 362.437 228.527 361.975 228.89 361.58C229.276 361.144 229.752 360.797 230.286 360.563C230.82 360.33 231.398 360.216 231.98 360.23C232.682 360.218 233.373 360.398 233.98 360.75C234.523 361.065 234.964 361.531 235.25 362.09L234 363C233.9 362.774 233.762 362.568 233.59 362.39C233.439 362.237 233.267 362.106 233.08 362C232.896 361.906 232.701 361.836 232.5 361.79C232.306 361.751 232.108 361.73 231.91 361.73C231.535 361.72 231.163 361.806 230.83 361.98C230.529 362.138 230.266 362.359 230.06 362.63C229.854 362.904 229.698 363.212 229.6 363.54C229.374 364.222 229.374 364.958 229.6 365.64C229.711 365.976 229.884 366.288 230.11 366.56C230.331 366.821 230.599 367.038 230.9 367.2C231.21 367.358 231.552 367.44 231.9 367.44C232.103 367.437 232.304 367.41 232.5 367.36C232.707 367.317 232.906 367.243 233.09 367.14C233.28 367.03 233.455 366.896 233.61 366.74C233.774 366.564 233.906 366.361 234 366.14L235.35 366.92C235.216 367.239 235.019 367.529 234.77 367.77C234.519 368.015 234.233 368.221 233.92 368.38C233.284 368.722 232.573 368.9 231.85 368.9C231.272 368.905 230.7 368.774 230.18 368.52C229.687 368.273 229.245 367.934 228.88 367.52C228.516 367.107 228.228 366.633 228.03 366.12C227.84 365.595 227.755 365.038 227.78 364.48Z" fill="#3734CA"/>
<path d="M240.08 368.86C239.493 368.869 238.911 368.742 238.38 368.49C237.387 368.009 236.617 367.164 236.23 366.13C236.032 365.623 235.93 365.084 235.93 364.54C235.93 363.981 236.039 363.427 236.25 362.91C236.453 362.401 236.748 361.933 237.12 361.53C237.496 361.115 237.947 360.776 238.45 360.53C238.975 360.295 239.545 360.175 240.12 360.18C240.703 360.169 241.279 360.3 241.8 360.56C242.299 360.803 242.745 361.143 243.11 361.56C243.494 361.98 243.796 362.469 244 363C244.197 363.504 244.299 364.039 244.3 364.58C244.3 365.139 244.192 365.693 243.98 366.21C243.784 366.718 243.492 367.183 243.12 367.58C242.746 367.976 242.297 368.296 241.8 368.52C241.26 368.763 240.672 368.879 240.08 368.86ZM237.61 364.54C237.611 364.903 237.669 365.264 237.78 365.61C237.885 365.939 238.048 366.247 238.26 366.52C238.477 366.781 238.742 366.998 239.04 367.16C239.366 367.32 239.727 367.399 240.09 367.39C240.461 367.397 240.828 367.315 241.16 367.15C241.461 366.988 241.726 366.767 241.94 366.5C242.151 366.222 242.313 365.911 242.42 365.58C242.519 365.256 242.573 364.919 242.58 364.58C242.581 364.216 242.52 363.854 242.4 363.51C242.294 363.179 242.128 362.871 241.91 362.6C241.703 362.332 241.436 362.116 241.13 361.97C240.82 361.816 240.477 361.737 240.13 361.74C239.763 361.733 239.399 361.815 239.07 361.98C238.762 362.132 238.495 362.354 238.29 362.63C238.078 362.903 237.915 363.211 237.81 363.54C237.693 363.861 237.626 364.198 237.61 364.54Z" fill="#3734CA"/>
<path d="M247.17 363.34V368.8H245.52V360.28H246.8L251.24 365.87V360.29H252.9V368.8H251.55L247.17 363.34Z" fill="#3734CA"/>
<path d="M254.67 368.8V360.28H260.4V361.73H256.33V363.93H259.71V365.27H256.33V368.8H254.67Z" fill="#3734CA"/>
<path d="M261.56 368.8V360.28H263.22V368.8H261.56Z" fill="#3734CA"/>
<path d="M265 368.8V360.28H268.77C269.147 360.276 269.519 360.358 269.86 360.52C270.182 360.685 270.473 360.905 270.72 361.17C270.955 361.441 271.144 361.748 271.28 362.08C271.41 362.397 271.478 362.737 271.48 363.08C271.489 363.612 271.347 364.136 271.07 364.59C270.814 365.035 270.421 365.386 269.95 365.59L271.89 368.8H270L268.26 365.94H266.63V368.8H265ZM266.66 364.49H268.74C268.888 364.494 269.033 364.456 269.16 364.38C269.293 364.309 269.409 364.21 269.5 364.09C269.604 363.959 269.682 363.81 269.73 363.65C269.791 363.476 269.821 363.294 269.82 363.11C269.819 362.922 269.785 362.736 269.72 362.56C269.661 362.398 269.573 362.249 269.46 362.12C269.356 362.001 269.23 361.903 269.09 361.83C268.957 361.763 268.809 361.729 268.66 361.73H266.66V364.49Z" fill="#3734CA"/>
<path d="M279.92 368.8V363.16L277.73 367.36H276.83L274.63 363.16V368.8H273V360.28H274.78L277.3 365.13L279.84 360.28H281.61V368.8H279.92Z" fill="#3734CA"/>
<path d="M289.27 367.35V368.8H283.35V360.28H289.16V361.73H285V363.73H288.59V365.08H285V367.3L289.27 367.35Z" fill="#3734CA"/>
<path d="M290.57 368.8V360.28H293.66C294.287 360.264 294.91 360.38 295.49 360.62C295.991 360.822 296.442 361.133 296.81 361.53C297.164 361.92 297.433 362.38 297.6 362.88C297.966 363.987 297.966 365.183 297.6 366.29C297.417 366.791 297.128 367.246 296.754 367.626C296.38 368.006 295.928 368.3 295.43 368.49C294.875 368.705 294.284 368.81 293.69 368.8H290.57ZM296.19 364.53C296.198 364.146 296.14 363.764 296.02 363.4C295.922 363.072 295.755 362.768 295.53 362.51C295.314 362.259 295.044 362.061 294.74 361.93C294.396 361.794 294.029 361.726 293.66 361.73H292.22V367.35H293.66C294.035 367.354 294.406 367.279 294.75 367.13C295.054 366.995 295.324 366.793 295.54 366.54C295.758 366.275 295.921 365.969 296.02 365.64C296.139 365.282 296.197 364.907 296.19 364.53Z" fill="#3734CA"/>
<path d="M312.64 325.4H187.36V219.42L249.99 179.64L312.64 219.42V325.4Z" fill="#3734CA"/>
<path opacity="0.2" d="M312.64 325.4H187.36V219.42L249.99 179.64L312.64 219.42V325.4Z" fill="black"/>
<path d="M305.57 174.6H194.42V317.29H305.57V174.6Z" fill="#EBEBEB"/>
<path d="M243.23 259.97L217.78 234.21L226.33 225.76L241.2 240.81L272.08 192.39L282.22 198.85L243.23 259.97Z" fill="#3734CA"/>
<path d="M312.64 246V325.4H187.36V246C192.74 249 198.03 252.24 203.36 255.36C208.69 258.48 213.97 261.72 219.24 264.96C225.11 268.53 230.98 272.17 236.83 275.83L237.02 275.72C236.96 275.72 236.92 275.82 236.87 275.85C241.244 278.55 245.62 281.267 250 284C254.36 281.25 258.75 278.48 263.13 275.77C263.08 275.77 263.04 275.68 262.98 275.64C263.039 275.681 263.103 275.715 263.17 275.74C269.017 272.093 274.88 268.467 280.76 264.86C286.034 261.64 291.32 258.447 296.62 255.28C302 252.19 307.26 249 312.64 246Z" fill="#3734CA"/>
<g opacity="0.2">
<path d="M312.64 246C307.58 249.55 302.43 253 297.33 256.46C292.23 259.92 287.04 263.3 281.86 266.69C276.46 270.23 271.05 273.737 265.63 277.21L265.14 277.55L250.71 286.75L249.99 287.18L249.29 286.75L234.88 277.53L234.37 277.21C228.937 273.73 223.52 270.217 218.12 266.67C212.96 263.3 207.81 259.88 202.67 256.46C197.53 253.04 192.42 249.5 187.36 246C192.74 249 198.03 252.24 203.36 255.36C208.69 258.48 213.97 261.72 219.24 264.96C225.11 268.53 230.98 272.17 236.83 275.83C241.23 278.543 245.62 281.267 250 284C254.36 281.25 258.75 278.48 263.13 275.77C268.977 272.123 274.84 268.497 280.72 264.89C285.994 261.67 291.28 258.477 296.58 255.31C302 252.19 307.26 249 312.64 246Z" fill="black"/>
<path d="M237 275.67C236.94 275.67 236.9 275.77 236.85 275.8L234.85 277.48C231.71 280.13 228.49 282.67 225.22 285.14C221.22 288.14 217.15 291.14 213.05 294C208.95 296.86 204.79 299.66 200.55 302.37C196.31 305.08 192.05 307.73 187.63 310.16C191.43 306.83 195.38 303.72 199.37 300.7C203.36 297.68 207.46 294.7 211.54 291.83C215.62 288.96 219.82 286.15 224.05 283.44C227.42 281.28 230.85 279.15 234.34 277.16C235.15 276.69 235.96 276.24 236.79 275.78L237 275.67Z" fill="black"/>
<path d="M312.34 310.16C307.92 307.73 303.63 305.08 299.42 302.37C295.21 299.66 291 296.84 286.9 294C282.8 291.16 278.72 288.18 274.73 285.14C271.48 282.67 268.26 280.14 265.14 277.5L263.14 275.8C263.09 275.8 263.05 275.71 262.99 275.67C263.049 275.711 263.113 275.745 263.18 275.77C264.01 276.24 264.82 276.69 265.63 277.16C269.12 279.16 272.53 281.28 275.92 283.44C280.15 286.15 284.29 288.97 288.41 291.83C292.53 294.69 296.59 297.65 300.58 300.7C304.57 303.75 308.54 306.83 312.34 310.16Z" fill="black"/>
</g>
<path d="M196.4 167.8C195.734 162.303 195.734 156.747 196.4 151.25C197.067 156.747 197.067 162.303 196.4 167.8Z" fill="#263238"/>
<path d="M189.36 170.43C187.169 168.739 185.094 166.901 183.15 164.93C181.177 162.992 179.339 160.921 177.65 158.73C182.009 162.146 185.941 166.074 189.36 170.43Z" fill="#263238"/>
<path d="M186.25 177.26C183.505 177.616 180.738 177.783 177.97 177.76C175.205 177.791 172.442 177.627 169.7 177.27C172.442 176.909 175.205 176.742 177.97 176.77C180.738 176.744 183.505 176.908 186.25 177.26Z" fill="#263238"/>
<path d="M188.88 184.29C185.461 188.645 181.533 192.577 177.18 196C180.592 191.635 184.521 187.699 188.88 184.28V184.29Z" fill="#263238"/>
<path d="M302.85 167.8C302.503 165.054 302.339 162.288 302.36 159.52C302.34 156.755 302.511 153.992 302.87 151.25C303.537 156.747 303.537 162.303 302.87 167.8H302.85Z" fill="#263238"/>
<path d="M309.89 170.43C313.31 166.074 317.241 162.146 321.6 158.73C319.912 160.921 318.074 162.992 316.1 164.93C314.157 166.901 312.082 168.739 309.89 170.43Z" fill="#263238"/>
<path d="M313 177.26C315.746 176.908 318.512 176.744 321.28 176.77C324.045 176.742 326.809 176.909 329.55 177.27C326.808 177.627 324.045 177.791 321.28 177.76C318.512 177.783 315.745 177.616 313 177.26Z" fill="#263238"/>
<path d="M310.37 184.29C314.729 187.706 318.658 191.638 322.07 196C319.882 194.305 317.81 192.464 315.87 190.49C313.897 188.552 312.059 186.481 310.37 184.29Z" fill="#263238"/>
</svg>
